<?xml version="1.0" encoding="utf-8"?>
<!-- Generator: Adobe Illustrator 23.0.1, SVG Export Plug-In . SVG Version: 6.00 Build 0)  -->
<svg version="1.1" id="Layer_1" xmlns="http://www.w3.org/2000/svg" xmlns:xlink="http://www.w3.org/1999/xlink" x="0px" y="0px"
	 viewBox="0 0 400 345.7" style="enable-background:new 0 0 400 345.7;" xml:space="preserve">
<style type="text/css">
	.st0{fill:#FFFFFF;}
</style>
<g>
	<path class="st0" d="M200.9,0L0,345.7h400L200.9,0z M200.9,44.3l160.7,279.1h-323L200.9,44.3z"/>
	<polygon class="st0" points="136.5,224.1 115.4,224.1 115.4,308.7 164,308.7 164,288.6 136.5,288.6 	"/>
	<polygon class="st0" points="224.3,216.7 224.3,126.8 171.4,126.8 171.4,309.7 193.7,309.7 193.7,149 201.6,149 202.6,216.7 	"/>
	<polygon class="st0" points="262.4,224.1 262.4,287.5 253.9,287.5 253.9,224.1 232.8,224.1 232.8,287.5 223.3,287.5 223.3,224.1 
		202.1,224.1 202.1,308.7 283.5,308.7 283.5,224.1 	"/>
</g>
</svg>
